<?xml version="1.0" standalone="no"?>
<!DOCTYPE svg PUBLIC "-//W3C//DTD SVG 20010904//EN"
 "http://www.w3.org/TR/2001/REC-SVG-20010904/DTD/svg10.dtd">
<svg version="1.0" xmlns="http://www.w3.org/2000/svg"
 width="252.000000pt" height="81.000000pt" viewBox="0 0 252.000000 81.000000"
 preserveAspectRatio="xMidYMid meet">
<metadata>
Created by potrace 1.10, written by Peter Selinger 2001-2011
</metadata>
<g transform="translate(0.000000,81.000000) scale(0.050000,-0.050000)"
fill="#000000" stroke="none">
<path d="M140 962 l0 -402 100 0 100 0 0 266 c0 305 17 354 127 354 132 0 142
-24 150 -338 l6 -282 99 0 98 0 0 277 c0 308 14 343 133 343 125 0 136 -27
144 -338 l6 -282 101 0 100 0 -7 299 c-6 263 -12 305 -48 355 -90 123 -321
173 -464 102 -60 -31 -70 -30 -130 0 -45 23 -133 35 -290 41 l-225 7 0 -402z"/>
<path d="M1570 1342 c-90 -23 -146 -64 -179 -132 l-29 -60 91 -6 c53 -4 119 6
156 24 89 42 181 17 181 -49 0 -44 -13 -51 -153 -80 -248 -51 -317 -124 -284
-298 37 -194 445 -267 589 -106 69 78 89 487 29 604 -44 85 -258 140 -401 103z
m250 -473 c0 -123 -27 -149 -150 -149 -237 0 -123 198 125 218 16 1 25 -25 25
-69z"/>
<path d="M2300 1337 c-353 -104 -309 -726 56 -784 170 -27 404 109 404 236 0
31 -188 8 -235 -29 -149 -117 -283 8 -260 245 15 160 156 234 255 135 55 -55
246 -59 226 -5 -60 166 -260 257 -446 202z"/>
<path d="M3080 1341 c-224 -45 -260 -115 -260 -500 l0 -281 100 0 100 0 0 256
c0 283 10 312 114 331 60 11 232 167 215 194 -10 17 -185 17 -269 0z"/>
<path d="M4100 962 l0 -402 100 0 100 0 0 266 c0 305 17 354 127 354 132 0
142 -24 150 -338 l6 -282 100 0 101 0 -7 299 c-10 427 -62 483 -462 498 l-215
7 0 -402z"/>
<path d="M3452 1295 c-107 -61 -106 -69 39 -200 156 -140 149 -140 308 4 117
107 126 121 100 152 -80 96 -315 119 -447 44z m265 -61 l43 -47 -48 -45 c-54
-51 -105 -45 -160 16 -72 80 91 154 165 76z"/>
<path d="M3292 1144 c-114 -221 6 -518 237 -581 106 -29 108 -47 -40 299 -153
358 -156 362 -197 282z"/>
<path d="M3922 1155 c-10 -25 -68 -161 -130 -304 -133 -306 -134 -315 -49
-290 244 70 368 341 257 560 -47 92 -55 95 -78 34z"/>
<path d="M2383 375 c-59 -101 -67 -147 -19 -99 29 29 116 32 116 4 0 -11 23
-20 50 -20 28 0 50 9 50 20 0 11 23 20 50 20 28 0 50 -9 50 -20 0 -11 14 -20
32 -20 21 0 28 11 20 32 -7 17 -18 67 -25 110 -16 105 -46 98 -115 -27 -63
-114 -65 -114 -101 50 -17 79 -40 69 -108 -50z"/>
<path d="M2789 405 c-7 -41 -17 -92 -23 -112 -7 -26 -2 -35 17 -29 15 5 30 27
33 48 15 99 27 128 54 128 40 0 38 -53 -2 -76 -27 -15 -28 -26 -10 -61 27 -49
67 -59 49 -12 -7 18 -1 53 13 79 36 67 13 110 -58 110 -54 0 -62 -8 -73 -75z"/>
<path d="M2973 405 c-18 -107 -16 -145 7 -145 11 0 20 18 20 40 0 27 13 40 40
40 27 0 40 -13 40 -40 0 -43 39 -57 41 -15 0 14 8 63 17 110 13 65 10 85 -9
85 -15 0 -29 -20 -33 -45 -3 -25 -19 -45 -36 -45 -16 0 -33 20 -36 45 -10 69
-37 53 -51 -30z"/>
<path d="M3189 412 c-18 -97 -5 -141 45 -148 51 -7 95 52 113 153 16 86 -31
77 -48 -10 -28 -137 -90 -152 -70 -17 16 106 -20 126 -40 22z"/>
<path d="M3415 459 c-48 -29 -44 -68 10 -104 25 -17 38 -37 30 -46 -8 -8 -28
-3 -45 11 -37 30 -60 15 -43 -29 14 -37 75 -41 109 -7 33 33 30 89 -6 103 -48
18 -36 58 12 42 31 -9 40 -6 34 14 -12 35 -57 42 -101 16z"/>
<path d="M3562 310 c-63 -176 -76 -234 -44 -199 24 26 128 349 116 361 -5 6
-37 -67 -72 -162z"/>
<path d="M3715 418 c-52 -30 -44 -108 16 -147 27 -18 44 -42 37 -54 -8 -14
-19 -14 -34 1 -25 25 -94 30 -94 7 2 -77 127 -95 183 -27 39 49 30 93 -25 123
-59 32 -44 59 24 46 59 -12 61 -11 40 30 -25 46 -89 55 -147 21z"/>
<path d="M3900 412 c0 -16 11 -32 23 -36 18 -6 19 -35 3 -112 -18 -94 -17
-104 15 -104 28 0 42 26 59 110 15 71 33 110 51 110 16 0 29 14 29 30 0 22
-23 30 -90 30 -64 0 -90 -8 -90 -28z"/>
<path d="M4147 410 c-61 -42 -89 -133 -60 -193 33 -66 165 -76 228 -17 143
133 -9 322 -168 210z m150 -86 c8 -59 -29 -104 -87 -104 -60 0 -79 54 -39 114
40 62 116 56 126 -10z"/>
<path d="M4453 425 c-7 -12 -53 -235 -53 -259 0 -40 79 5 85 49 l7 55 27 -55
c36 -72 109 -78 82 -7 -14 36 -11 55 10 73 39 32 37 132 -3 147 -44 17 -144
15 -155 -3z m122 -80 c4 -12 -11 -32 -34 -44 -35 -19 -41 -17 -41 15 0 63 56
85 75 29z"/>
<path d="M4711 415 c-9 -27 -51 -231 -51 -246 0 -5 36 -9 80 -9 58 0 80 8 80
30 0 17 -18 30 -40 30 -55 0 -51 36 5 44 60 8 74 76 15 76 -23 0 -37 9 -30 20
7 11 29 20 49 20 20 0 42 14 48 30 9 24 -5 30 -68 30 -47 0 -84 -11 -88 -25z"/>
</g>
</svg>
